<?xml version="1.0" standalone="no"?>
<!DOCTYPE svg PUBLIC "-//W3C//DTD SVG 20010904//EN"
 "http://www.w3.org/TR/2001/REC-SVG-20010904/DTD/svg10.dtd">
<svg version="1.0" xmlns="http://www.w3.org/2000/svg"
 width="500.000000pt" height="500.000000pt" viewBox="0 0 500.000000 500.000000"
 preserveAspectRatio="xMidYMid meet">

<g transform="translate(0.000000,500.000000) scale(0.100000,-0.100000)"
fill="#000000" stroke="none">
<path d="M2189 3604 c-8 -28 -14 -92 -14 -149 0 -89 3 -107 28 -160 15 -33 48
-80 72 -105 42 -44 43 -46 36 -93 -5 -27 -5 -63 -1 -80 l7 -32 8 30 c14 55 57
130 97 171 l40 41 -65 81 c-104 128 -134 182 -186 326 -6 15 -11 9 -22 -30z"/>
<path d="M2430 3593 c-42 -38 -50 -90 -21 -137 46 -74 151 -69 187 8 51 107
-79 207 -166 129z"/>
<path d="M1595 3347 c-22 -65 -28 -101 -29 -177 -1 -91 15 -183 37 -225 6 -11
12 -22 12 -25 14 -84 173 -305 204 -285 7 3 10 1 9 -6 -4 -19 98 -77 187 -105
109 -34 255 -43 345 -19 116 30 205 98 250 190 44 90 38 252 -12 352 -24 49
-31 52 -51 22 -14 -18 -13 -26 5 -67 64 -144 -33 -346 -191 -400 -48 -17 -158
-15 -222 4 -154 45 -296 161 -379 307 -36 64 -36 90 1 30 35 -59 126 -159 176
-195 25 -18 46 -31 47 -28 1 3 10 -3 19 -12 21 -20 118 -58 168 -65 l37 -5 12
72 c17 99 9 223 -17 281 -42 93 -137 173 -267 222 -99 38 -194 98 -258 161
l-55 56 -28 -83z"/>
<path d="M1171 2296 c-14 -17 -7 -36 14 -36 22 0 29 20 13 36 -13 13 -16 13
-27 0z"/>
<path d="M2707 2290 c-33 -15 -36 -18 -18 -23 20 -5 21 -12 21 -170 0 -160 -1
-166 -22 -181 -21 -15 -19 -16 42 -15 49 0 59 3 43 9 -22 9 -23 12 -23 201 1
105 -1 193 -2 194 -2 1 -20 -6 -41 -15z"/>
<path d="M2425 2285 c-20 -9 -24 -14 -12 -14 20 -1 19 1 23 -69 2 -45 0 -53
-13 -48 -8 3 -27 8 -41 11 -25 5 -24 4 6 -12 22 -11 35 -28 42 -52 14 -50 13
-144 -2 -159 -9 -9 -9 -12 0 -12 7 0 12 -6 12 -14 0 -11 7 -12 35 -3 28 8 32
12 20 21 -11 9 -15 48 -17 185 -2 105 -7 175 -13 177 -5 2 -23 -3 -40 -11z"/>
<path d="M3445 2286 c-28 -12 -29 -13 -7 -18 22 -6 22 -9 22 -171 0 -160 1
-166 22 -181 32 -22 104 -20 143 4 71 44 85 155 26 213 -36 37 -76 39 -120 8
l-31 -22 0 90 c0 98 -1 100 -55 77z m174 -180 c61 -65 21 -197 -59 -196 -50 1
-60 19 -60 113 0 71 3 88 18 96 31 18 77 13 101 -13z"/>
<path d="M4026 2286 c-27 -12 -27 -13 -7 -19 20 -5 21 -10 21 -169 0 -164 -3
-180 -30 -191 -8 -3 14 -5 50 -6 49 0 59 3 43 9 -23 9 -23 12 -23 200 0 205 1
200 -54 176z"/>
<path d="M687 2283 c40 -8 44 -23 41 -194 -3 -163 -3 -163 -28 -176 -22 -11
-15 -13 60 -12 49 1 75 4 61 8 -31 8 -43 50 -39 129 l3 57 98 3 98 3 -3 -93
c-3 -89 -4 -92 -28 -99 -15 -4 10 -7 60 -8 75 -1 82 1 60 12 -25 12 -25 14
-28 167 -3 178 0 197 31 203 12 2 -16 4 -63 5 -48 0 -74 -3 -60 -7 24 -7 25
-11 28 -89 l3 -83 -98 3 -98 3 -3 47 c-4 68 9 111 39 119 13 4 -16 7 -66 7
-49 -1 -80 -3 -68 -5z"/>
<path d="M1173 2156 c-36 -10 -42 -20 -18 -30 12 -4 15 -25 15 -100 0 -87 -2
-96 -22 -110 -21 -15 -19 -16 42 -15 36 1 57 3 48 6 -23 6 -28 27 -31 153 l-2
106 -32 -10z"/>
<path d="M1308 2158 c-29 -10 -36 -24 -16 -30 14 -5 24 -130 14 -182 -5 -25
-13 -36 -29 -39 -12 -2 10 -5 48 -5 51 -1 64 2 48 8 -22 9 -23 15 -23 104 0
87 2 96 22 110 28 20 62 20 78 1 15 -18 26 -141 16 -180 -4 -14 -17 -30 -29
-35 -16 -6 -3 -9 48 -9 52 0 64 3 48 9 -21 8 -23 17 -24 82 -3 130 -9 151 -49
168 -27 11 -34 10 -70 -14 l-40 -26 0 25 c0 27 -2 28 -42 13z"/>
<path d="M1554 2151 c-18 -11 -35 -25 -40 -32 -4 -7 3 -5 17 4 28 20 62 22 77
4 15 -18 25 -120 17 -169 -5 -27 -14 -42 -28 -48 -16 -6 -1 -9 48 -9 49 0 64
3 49 9 -27 11 -33 36 -33 127 0 93 -5 109 -43 122 -17 6 -31 11 -32 11 -1 0
-15 -9 -32 -19z"/>
<path d="M2069 2152 c-48 -24 -71 -73 -66 -141 3 -46 9 -59 36 -83 45 -41 92
-39 137 6 19 19 34 39 34 46 0 6 -11 -1 -23 -16 -44 -51 -113 -30 -143 43 -26
61 -23 63 77 63 89 0 90 0 84 23 -9 30 -45 63 -76 71 -15 3 -39 -2 -60 -12z
m69 -14 c5 -7 13 -23 16 -35 7 -22 5 -23 -58 -23 -58 0 -65 2 -59 18 17 47 76
70 101 40z"/>
<path d="M2815 2160 c-12 -4 -27 -16 -35 -26 -14 -16 -13 -16 7 -6 61 33 83 5
83 -108 0 -80 -2 -90 -22 -104 -21 -15 -19 -16 42 -15 36 0 58 3 50 6 -26 10
-30 25 -30 111 0 80 -17 142 -39 142 -5 0 -15 2 -23 4 -7 3 -22 1 -33 -4z"/>
<path d="M3065 2163 c-48 -12 -85 -73 -85 -138 0 -40 12 -68 43 -102 30 -34
96 -32 131 3 29 30 36 56 9 32 -30 -25 -52 -28 -89 -13 -35 15 -64 62 -64 105
0 19 6 20 91 20 89 0 90 0 84 23 -15 49 -71 82 -120 70z m59 -35 c29 -41 21
-48 -49 -48 -57 0 -64 2 -58 18 19 54 79 70 107 30z"/>
<path d="M3245 2149 c-30 -14 -35 -19 -17 -19 21 0 22 -3 22 -97 0 -100 -4
-116 -30 -126 -8 -3 17 -6 55 -6 63 -1 67 1 45 12 -23 12 -25 18 -28 97 -2 75
0 88 18 107 17 19 24 21 45 11 33 -15 55 2 35 27 -18 21 -34 19 -69 -10 l-30
-26 -3 24 -3 24 -40 -18z"/>
<path d="M3841 2156 c34 -20 37 -27 38 -124 l1 -81 -31 -17 c-43 -22 -79 -6
-79 34 0 30 16 49 65 76 26 15 27 16 5 10 -14 -4 -43 -18 -65 -33 -95 -63 -27
-161 70 -101 l33 20 5 -20 c7 -27 48 -26 73 1 19 22 19 22 -2 11 -12 -6 -24
-8 -28 -5 -3 3 -6 48 -6 99 0 105 -12 128 -70 139 l-35 6 26 -15z"/>
<path d="M4246 2154 c17 -9 36 -28 41 -43 11 -25 11 -25 12 12 1 33 -2 37 -23
37 -13 0 -33 2 -43 5 -10 3 -4 -2 13 -11z"/>
<path d="M1736 2152 c15 -9 42 -66 84 -170 18 -46 36 -80 41 -75 4 4 28 59 53
122 25 63 51 118 58 123 8 5 -1 7 -22 7 -19 0 -29 -3 -22 -6 6 -2 12 -10 12
-16 0 -19 -62 -167 -70 -167 -4 0 -21 35 -37 78 -22 55 -28 82 -22 95 9 15 4
17 -38 17 -26 0 -43 -4 -37 -8z"/>
<path d="M2298 2137 c-29 -24 -58 -83 -58 -118 0 -35 31 -89 61 -104 42 -22
109 -18 109 7 0 5 -5 6 -10 3 -22 -14 -72 7 -91 38 -34 57 -19 159 28 186 14
8 15 10 3 10 -8 0 -27 -10 -42 -22z"/>
<path d="M3762 2144 c-25 -17 -30 -54 -7 -54 9 0 18 8 21 18 3 9 10 25 15 35
11 21 0 22 -29 1z"/>
<path d="M4170 2140 c-39 -39 -22 -75 56 -125 50 -32 55 -38 52 -68 -2 -25 -8
-33 -27 -35 -41 -6 -67 6 -83 40 l-17 33 0 -41 -1 -41 63 -2 c73 -2 101 17 99
70 -1 36 -15 55 -56 76 -69 35 -95 81 -58 102 9 6 11 11 5 11 -7 0 -22 -9 -33
-20z"/>
</g>
</svg>
